<svg width="266" height="271" fill="none" xmlns="http://www.w3.org/2000/svg"><g filter="url(#filter0_d_18_961)"><path d="M164.625 7.826c-6.646-3.838-15.145-1.56-18.982 5.086l-18.77 32.51a5.723 5.723 0 01-7.817 2.095L88.483 29.865c-6.646-3.837-15.145-1.56-18.982 5.087L56.944 56.7c-3.838 6.646-1.56 15.145 5.086 18.982l30.573 17.652a5.722 5.722 0 012.095 7.816l-18.77 32.51c-3.837 6.647-1.56 15.146 5.086 18.983l20.458 11.811c6.647 3.838 15.146 1.56 18.983-5.086l18.77-32.51a5.722 5.722 0 017.816-2.095l30.573 17.652c6.647 3.837 15.145 1.56 18.983-5.087l12.557-21.749c3.837-6.646 1.56-15.145-5.087-18.982l-30.573-17.652a5.722 5.722 0 01-2.094-7.816l18.769-32.51c3.838-6.647 1.561-15.146-5.086-18.983l-20.458-11.81z" stroke="#fff" stroke-width="8.174" shape-rendering="crispEdges"/></g><defs><filter id="filter0_d_18_961" x=".311" y=".239" width="265.475" height="269.894" filterUnits="userSpaceOnUse" color-interpolation-filters="sRGB"><feFlood flood-opacity="0" result="BackgroundImageFix"/><feColorMatrix in="SourceAlpha" values="0 0 0 0 0 0 0 0 0 0 0 0 0 0 0 0 0 0 127 0" result="hardAlpha"/><feOffset dy="49.046"/><feGaussianBlur stdDeviation="25.34"/><feComposite in2="hardAlpha" operator="out"/><feColorMatrix values="0 0 0 0 0 0 0 0 0 0 0 0 0 0 0 0 0 0 0.7 0"/><feBlend in2="BackgroundImageFix" result="effect1_dropShadow_18_961"/><feBlend in="SourceGraphic" in2="effect1_dropShadow_18_961" result="shape"/></filter></defs></svg>