<svg width="477" height="123" fill="none" xmlns="http://www.w3.org/2000/svg"><path d="M476.457 123h-5.348v-5.348h5.348V123zm0-58.826h-5.348v-5.348h5.348v5.348zm0-58.826h-5.348V0h5.348v5.348zM417.63 123h-5.347v-5.348h5.347V123zm0-58.826h-5.347v-5.348h5.347v5.348zm0-58.826h-5.347V0h5.347v5.348zM358.804 123h-5.347v-5.348h5.347V123zm0-58.826h-5.347v-5.348h5.347v5.348zm0-58.826h-5.347V0h5.347v5.348zM299.978 123h-5.348v-5.348h5.348V123zm0-58.826h-5.348v-5.348h5.348v5.348zm0-58.826h-5.348V0h5.348v5.348zM241.152 123h-5.348v-5.348h5.348V123zm0-58.826h-5.348v-5.348h5.348v5.348zm0-58.826h-5.348V0h5.348v5.348zM182.326 123h-5.348v-5.348h5.348V123zm0-58.826h-5.348v-5.348h5.348v5.348zm0-58.826h-5.348V0h5.348v5.348zM123.5 123h-5.348v-5.348h5.348V123zm0-58.826h-5.348v-5.348h5.348v5.348zm0-58.826h-5.348V0h5.348v5.348zM64.674 123h-5.348v-5.348h5.348V123zm0-58.826h-5.348v-5.348h5.348v5.348zm0-58.826h-5.348V0h5.348v5.348zM5.848 123H.5v-5.348h5.348V123zm0-58.826H.5v-5.348h5.348v5.348zm0-58.826H.5V0h5.348v5.348z" fill="#fff"/></svg>