<svg width="99" height="100" fill="none" xmlns="http://www.w3.org/2000/svg"><rect y=".54" width="99" height="99" rx="20" fill="url(#paint0_linear_18_972)"/><path d="M49.52 14.616c16.792.104 31.545 12.092 34.702 28.705 2.224 11.706-.642 22.178-8.682 31.05-5.974 6.595-13.441 10.346-22.242 11.314-6.508.717-12.755-.375-18.667-3.23-.84-.406-1.584-.512-2.499-.263-5.173 1.405-10.364 2.75-15.55 4.115-1.84.485-2.86-.567-2.358-2.425 1.377-5.116 2.738-10.236 4.137-15.346.223-.807.172-1.481-.218-2.245-2.433-4.763-3.748-9.841-3.82-15.192-.122-9.254 2.803-17.415 8.933-24.363 5.168-5.856 11.575-9.615 19.181-11.218 2.326-.49 4.722-.612 7.083-.902zM18.124 82.332c.458-.097.703-.139.94-.203 4.427-1.165 8.859-2.314 13.277-3.515.94-.255 1.73-.125 2.62.247 2.31.964 4.612 2.042 7.02 2.658 13 3.316 26.892-1.982 34.148-13.333 7.129-11.155 7.515-22.82.861-34.307-9.8-16.92-32.456-20.914-47.485-8.5-7.392 6.107-11.371 14.082-11.776 23.744-.247 5.9 1.064 11.474 3.892 16.66.468.856.575 1.66.298 2.613-.744 2.543-1.405 5.108-2.098 7.666-.552 2.031-1.1 4.062-1.697 6.27z" fill="#fff"/><path d="M43.069 47.96c2.372 4.094 5.642 7.142 10.04 8.897.222.089.67-.051.84-.243.687-.776 1.314-1.608 1.945-2.434 1.01-1.32 2.273-1.764 3.813-1.118 1.763.737 3.468 1.616 5.196 2.438.311.148.601.356.925.464 2.804.934 2.748 2.553 2.409 4.684-.699 4.375-4.484 7.507-9.063 7.645-2.037.063-3.975-.35-5.906-.975-7.706-2.492-13.42-7.558-18.13-13.985-1.804-2.462-3.394-5.008-4.03-8.044-.897-4.284.367-7.912 3.4-10.962.875-.881 1.967-1.327 3.22-1.338.094 0 .188-.004.282-.002 2.76.015 3.678-.22 5.177 3.532.678 1.697 1.34 3.403 2.074 5.076.717 1.635.384 3.075-.639 4.426-.49.65-1.017 1.273-1.553 1.938zM58.297 65l.028-.083c.593-.057 1.192-.078 1.776-.178 2.409-.415 4.362-2.204 4.81-4.339.147-.7.038-1.16-.703-1.487a92.368 92.368 0 01-4.917-2.374c-.61-.315-.919-.18-1.3.358a29.558 29.558 0 01-2.126 2.65c-.949 1.058-2.12 1.325-3.416.755-1.262-.556-2.516-1.147-3.708-1.837-3.676-2.125-6.488-5.14-8.614-8.804-.96-1.656-.791-2.64.518-4.09.44-.488.922-.973 1.222-1.547.203-.389.284-.991.136-1.393-.686-1.862-1.464-3.69-2.227-5.523-.101-.242-.3-.62-.47-.63-.94-.048-1.88-.295-2.722.554-2.476 2.501-2.915 5.398-1.836 8.625 1.115 3.331 3.27 6.016 5.47 8.655 4.031 4.836 8.998 8.29 15.052 10.065.985.288 2.017.42 3.027.623z" fill="#fff"/><path d="M49.52 14.616c16.792.104 31.545 12.092 34.702 28.705 2.224 11.706-.642 22.178-8.682 31.05-5.974 6.595-13.441 10.346-22.242 11.314-6.508.717-12.755-.375-18.667-3.23-.84-.406-1.584-.512-2.499-.263-5.173 1.405-10.364 2.75-15.55 4.115-1.84.485-2.86-.567-2.358-2.425 1.377-5.116 2.738-10.236 4.137-15.346.223-.807.172-1.481-.218-2.245-2.433-4.763-3.748-9.841-3.82-15.192-.122-9.254 2.803-17.415 8.933-24.363 5.168-5.856 11.575-9.615 19.181-11.218 2.326-.49 4.722-.612 7.083-.902zM18.124 82.332c.458-.097.703-.139.94-.203 4.427-1.165 8.859-2.314 13.277-3.515.94-.255 1.73-.125 2.62.247 2.31.964 4.612 2.042 7.02 2.658 13 3.316 26.892-1.982 34.148-13.333 7.129-11.155 7.515-22.82.861-34.307-9.8-16.92-32.456-20.914-47.485-8.5-7.392 6.107-11.371 14.082-11.776 23.744-.247 5.9 1.064 11.474 3.892 16.66.468.856.575 1.66.298 2.613-.744 2.543-1.405 5.108-2.098 7.666-.552 2.031-1.1 4.062-1.697 6.27z" stroke="#fff"/><path d="M43.069 47.96c2.372 4.094 5.642 7.142 10.04 8.897.222.089.67-.051.84-.243.687-.776 1.314-1.608 1.945-2.434 1.01-1.32 2.273-1.764 3.813-1.118 1.763.737 3.468 1.616 5.196 2.438.311.148.601.356.925.464 2.804.934 2.748 2.553 2.409 4.684-.699 4.375-4.484 7.507-9.063 7.645-2.037.063-3.975-.35-5.906-.975-7.706-2.492-13.42-7.558-18.13-13.985-1.804-2.462-3.394-5.008-4.03-8.044-.897-4.284.367-7.912 3.4-10.962.875-.881 1.967-1.327 3.22-1.338.094 0 .188-.004.282-.002 2.76.015 3.678-.22 5.177 3.532.678 1.697 1.34 3.403 2.074 5.076.717 1.635.384 3.075-.639 4.426-.49.65-1.017 1.273-1.553 1.938zM58.297 65l.028-.083c.593-.057 1.192-.078 1.776-.178 2.409-.415 4.362-2.204 4.81-4.339.147-.7.038-1.16-.703-1.487a92.368 92.368 0 01-4.917-2.374c-.61-.315-.919-.18-1.3.358a29.558 29.558 0 01-2.126 2.65c-.949 1.058-2.12 1.325-3.416.755-1.262-.556-2.516-1.147-3.708-1.837-3.676-2.125-6.488-5.14-8.614-8.804-.96-1.656-.791-2.64.518-4.09.44-.488.922-.973 1.222-1.547.203-.389.284-.991.136-1.393-.686-1.862-1.464-3.69-2.227-5.523-.101-.242-.3-.62-.47-.63-.94-.048-1.88-.295-2.722.554-2.476 2.501-2.915 5.398-1.836 8.625 1.115 3.331 3.27 6.016 5.47 8.655 4.031 4.836 8.998 8.29 15.052 10.065.985.288 2.017.42 3.027.623z" stroke="#fff"/><defs><linearGradient id="paint0_linear_18_972" x1="67.784" y1="86.162" x2="67.784" y2="7.675" gradientUnits="userSpaceOnUse"><stop stop-color="#00C100"/><stop offset="1" stop-color="#2DFD45"/></linearGradient></defs></svg>