<svg width="99" height="100" fill="none" xmlns="http://www.w3.org/2000/svg"><rect y=".54" width="99" height="99" rx="20" fill="url(#paint0_linear_18_1003)"/><g clip-path="url(#clip0_18_1003)"><path d="M82.574 38.963c-.194-2.504-.511-4.982-1.49-7.334-1.254-3.016-3.556-4.818-6.84-5.187-3.018-.338-6.065-.47-9.106-.589-12.79-.493-25.58-.422-38.361.341-1.908.116-3.777.38-5.46 1.397-2.357 1.425-3.583 3.607-4.05 6.134a67.497 67.497 0 00-1.021 8.333 134.438 134.438 0 00.236 19.522c.19 2.247.543 4.458 1.356 6.59 1.088 2.858 3.18 4.61 6.198 5.168 2.094.385 4.238.597 6.37.678 6.06.237 12.12.366 17.704.524 5.02-.087 9.564-.11 14.103-.262 3.941-.132 7.89-.307 11.815-.67 3.43-.318 5.834-2.18 7.106-5.348.94-2.338 1.25-4.793 1.44-7.274.568-7.342.568-14.681 0-22.023zM41.269 62.129V37.926c6.942 4.056 13.768 8.044 20.71 12.096-6.994 4.09-13.809 8.071-20.71 12.107z" fill="#fff"/></g><defs><linearGradient id="paint0_linear_18_1003" x1="67.784" y1="86.162" x2="67.784" y2="7.675" gradientUnits="userSpaceOnUse"><stop stop-color="#D0171A"/><stop offset="1" stop-color="#E42C2B"/></linearGradient><clipPath id="clip0_18_1003"><path fill="#fff" transform="translate(16 25.54)" d="M0 0h67v49H0z"/></clipPath></defs></svg>